<svg width="24" height="24" viewBox="0 0 24 24" fill="none" xmlns="http://www.w3.org/2000/svg">
<path fill-rule="evenodd" clip-rule="evenodd" d="M12 1.5C9.92893 1.5 8.25 3.17893 8.25 5.25V6H15.75V5.25C15.75 3.17893 14.0711 1.5 12 1.5ZM17.25 6V5.25C17.25 2.35051 14.8995 0 12 0C9.1005 0 6.75 2.35051 6.75 5.25V6H1.5V21C1.5 22.6569 2.84315 24 4.5 24H19.5C21.1569 24 22.5 22.6569 22.5 21V6H17.25ZM3 7.5V21C3 21.8284 3.67157 22.5 4.5 22.5H19.5C20.3284 22.5 21 21.8284 21 21V7.5H3Z" fill="#818181"/>
</svg>
