<svg width="32" height="32" viewBox="0 0 32 32" fill="none" xmlns="http://www.w3.org/2000/svg">
<path fill-rule="evenodd" clip-rule="evenodd" d="M3.83982 1.01292C4.15711 0.961435 4.47981 1.06561 4.70711 1.29291L6 2.5858L7.29289 1.29291C7.68342 0.902381 8.31658 0.902381 8.70711 1.29291L10 2.5858L11.2929 1.29291C11.6834 0.902381 12.3166 0.902381 12.7071 1.29291L14 2.5858L15.2929 1.29291C15.6834 0.902381 16.3166 0.902381 16.7071 1.29291L18 2.5858L19.2929 1.29291C19.6834 0.902381 20.3166 0.902381 20.7071 1.29291L22 2.5858L23.2929 1.29291C23.6834 0.902381 24.3166 0.902381 24.7071 1.29291L26 2.5858L27.2929 1.29291C27.5202 1.06561 27.8429 0.961435 28.1602 1.01292C28.4775 1.06441 28.7507 1.26529 28.8944 1.5528L29.8944 3.5528C29.9639 3.69165 30 3.84477 30 4.00001V28C30 28.1553 29.9639 28.3084 29.8944 28.4472L28.8944 30.4472C28.7507 30.7347 28.4775 30.9356 28.1602 30.9871C27.8429 31.0386 27.5202 30.9344 27.2929 30.7071L26 29.4142L24.7071 30.7071C24.3166 31.0976 23.6834 31.0976 23.2929 30.7071L22 29.4142L20.7071 30.7071C20.3166 31.0976 19.6834 31.0976 19.2929 30.7071L18 29.4142L16.7071 30.7071C16.3166 31.0976 15.6834 31.0976 15.2929 30.7071L14 29.4142L12.7071 30.7071C12.3166 31.0976 11.6834 31.0976 11.2929 30.7071L10 29.4142L8.70711 30.7071C8.31658 31.0976 7.68342 31.0976 7.29289 30.7071L6 29.4142L4.70711 30.7071C4.47981 30.9344 4.15711 31.0386 3.83982 30.9871C3.52252 30.9356 3.24933 30.7347 3.10557 30.4472L2.10557 28.4472C2.03615 28.3084 2 28.1553 2 28V4.00001C2 3.84477 2.03615 3.69165 2.10557 3.5528L3.10557 1.5528C3.24933 1.26529 3.52252 1.06441 3.83982 1.01292ZM4.27395 3.68818L4 4.23608V27.7639L4.27395 28.3118L5.29289 27.2929C5.68342 26.9024 6.31658 26.9024 6.70711 27.2929L8 28.5858L9.29289 27.2929C9.68342 26.9024 10.3166 26.9024 10.7071 27.2929L12 28.5858L13.2929 27.2929C13.6834 26.9024 14.3166 26.9024 14.7071 27.2929L16 28.5858L17.2929 27.2929C17.6834 26.9024 18.3166 26.9024 18.7071 27.2929L20 28.5858L21.2929 27.2929C21.6834 26.9024 22.3166 26.9024 22.7071 27.2929L24 28.5858L25.2929 27.2929C25.6834 26.9024 26.3166 26.9024 26.7071 27.2929L27.726 28.3118L28 27.7639V4.23608L27.726 3.68818L26.7071 4.70712C26.3166 5.09764 25.6834 5.09764 25.2929 4.70712L24 3.41423L22.7071 4.70712C22.3166 5.09764 21.6834 5.09764 21.2929 4.70712L20 3.41423L18.7071 4.70712C18.3166 5.09764 17.6834 5.09764 17.2929 4.70712L16 3.41423L14.7071 4.70712C14.3166 5.09764 13.6834 5.09764 13.2929 4.70712L12 3.41423L10.7071 4.70712C10.3166 5.09764 9.68342 5.09764 9.29289 4.70712L8 3.41423L6.70711 4.70712C6.31658 5.09764 5.68342 5.09764 5.29289 4.70712L4.27395 3.68818Z" fill="black"/>
<path fill-rule="evenodd" clip-rule="evenodd" d="M6 9.00001C6 8.44773 6.44772 8.00001 7 8.00001H19C19.5523 8.00001 20 8.44773 20 9.00001C20 9.5523 19.5523 10 19 10H7C6.44772 10 6 9.5523 6 9.00001ZM6 13C6 12.4477 6.44772 12 7 12H19C19.5523 12 20 12.4477 20 13C20 13.5523 19.5523 14 19 14H7C6.44772 14 6 13.5523 6 13ZM6 17C6 16.4477 6.44772 16 7 16H19C19.5523 16 20 16.4477 20 17C20 17.5523 19.5523 18 19 18H7C6.44772 18 6 17.5523 6 17ZM6 21C6 20.4477 6.44772 20 7 20H19C19.5523 20 20 20.4477 20 21C20 21.5523 19.5523 22 19 22H7C6.44772 22 6 21.5523 6 21Z" fill="black"/>
<path fill-rule="evenodd" clip-rule="evenodd" d="M22 9.00001C22 8.44773 22.4477 8.00001 23 8.00001H25C25.5523 8.00001 26 8.44773 26 9.00001C26 9.5523 25.5523 10 25 10H23C22.4477 10 22 9.5523 22 9.00001ZM22 13C22 12.4477 22.4477 12 23 12H25C25.5523 12 26 12.4477 26 13C26 13.5523 25.5523 14 25 14H23C22.4477 14 22 13.5523 22 13ZM22 17C22 16.4477 22.4477 16 23 16H25C25.5523 16 26 16.4477 26 17C26 17.5523 25.5523 18 25 18H23C22.4477 18 22 17.5523 22 17ZM22 21C22 20.4477 22.4477 20 23 20H25C25.5523 20 26 20.4477 26 21C26 21.5523 25.5523 22 25 22H23C22.4477 22 22 21.5523 22 21Z" fill="black"/>
</svg>
