<svg width="32" height="32" viewBox="0 0 32 32" fill="none" xmlns="http://www.w3.org/2000/svg">
<path d="M5.33333 12C5.33333 11.2636 5.93029 10.6667 6.66667 10.6667H12C12.7364 10.6667 13.3333 11.2636 13.3333 12C13.3333 12.7364 12.7364 13.3333 12 13.3333H6.66667C5.93029 13.3333 5.33333 12.7364 5.33333 12Z" fill="#414141"/>
<path fill-rule="evenodd" clip-rule="evenodd" d="M5.33333 4C2.38781 4 0 6.38781 0 9.33333V22.6667C0 25.6122 2.38782 28 5.33333 28H26.6667C29.6122 28 32 25.6122 32 22.6667V9.33333C32 6.38781 29.6122 4 26.6667 4H5.33333ZM26.6667 6.66667H5.33333C3.86057 6.66667 2.66667 7.86057 2.66667 9.33333V18.6667H29.3333V9.33333C29.3333 7.86057 28.1394 6.66667 26.6667 6.66667ZM29.3333 21.3333H2.66667V22.6667C2.66667 24.1394 3.86057 25.3333 5.33333 25.3333H26.6667C28.1394 25.3333 29.3333 24.1394 29.3333 22.6667V21.3333Z" fill="#414141"/>
</svg>
