<svg width="152" height="40" viewBox="0 0 152 40" fill="none" xmlns="http://www.w3.org/2000/svg">
<rect x="8" width="40" height="40" rx="18" fill="black"/>
<path d="M17.577 28V13.6H23.397C23.537 13.6 23.7103 13.6067 23.917 13.62C24.1236 13.6267 24.3203 13.6467 24.507 13.68C25.307 13.8067 25.9736 14.08 26.507 14.5C27.047 14.92 27.4503 15.45 27.717 16.09C27.9836 16.73 28.117 17.4367 28.117 18.21C28.117 19.3567 27.8236 20.3467 27.237 21.18C26.6503 22.0067 25.7703 22.5233 24.597 22.73L23.747 22.83H19.667V28H17.577ZM25.997 28L23.157 22.14L25.267 21.6L28.387 28H25.997ZM19.667 20.85H23.317C23.4503 20.85 23.597 20.8433 23.757 20.83C23.9236 20.8167 24.0803 20.7933 24.227 20.76C24.6536 20.66 24.997 20.4767 25.257 20.21C25.517 19.9367 25.7036 19.6233 25.817 19.27C25.9303 18.9167 25.987 18.5633 25.987 18.21C25.987 17.8567 25.9303 17.5067 25.817 17.16C25.7036 16.8067 25.517 16.4967 25.257 16.23C24.997 15.9567 24.6536 15.77 24.227 15.67C24.0803 15.63 23.9236 15.6033 23.757 15.59C23.597 15.5767 23.4503 15.57 23.317 15.57H19.667V20.85ZM30.7248 28L30.7348 13.6H32.8548V22.4L37.0948 17.2H39.7548L35.2748 22.6L40.2148 28H37.3748L32.8548 22.8V28H30.7248Z" fill="white"/>
<path d="M61.4 28V13.6H67.22C67.36 13.6 67.5333 13.6067 67.74 13.62C67.9467 13.6267 68.1433 13.6467 68.33 13.68C69.13 13.8067 69.7967 14.08 70.33 14.5C70.87 14.92 71.2733 15.45 71.54 16.09C71.8067 16.73 71.94 17.4367 71.94 18.21C71.94 19.3567 71.6467 20.3467 71.06 21.18C70.4733 22.0067 69.5933 22.5233 68.42 22.73L67.57 22.83H63.49V28H61.4ZM69.82 28L66.98 22.14L69.09 21.6L72.21 28H69.82ZM63.49 20.85H67.14C67.2733 20.85 67.42 20.8433 67.58 20.83C67.7467 20.8167 67.9033 20.7933 68.05 20.76C68.4767 20.66 68.82 20.4767 69.08 20.21C69.34 19.9367 69.5267 19.6233 69.64 19.27C69.7533 18.9167 69.81 18.5633 69.81 18.21C69.81 17.8567 69.7533 17.5067 69.64 17.16C69.5267 16.8067 69.34 16.4967 69.08 16.23C68.82 15.9567 68.4767 15.77 68.05 15.67C67.9033 15.63 67.7467 15.6033 67.58 15.59C67.42 15.5767 67.2733 15.57 67.14 15.57H63.49V20.85ZM79.3478 28.3C78.2745 28.3 77.3311 28.0667 76.5178 27.6C75.7111 27.1267 75.0811 26.47 74.6278 25.63C74.1811 24.7833 73.9578 23.8033 73.9578 22.69C73.9578 21.51 74.1778 20.4867 74.6178 19.62C75.0645 18.7533 75.6845 18.0833 76.4778 17.61C77.2711 17.1367 78.1945 16.9 79.2478 16.9C80.3478 16.9 81.2845 17.1567 82.0578 17.67C82.8311 18.1767 83.4078 18.9 83.7878 19.84C84.1745 20.78 84.3278 21.8967 84.2478 23.19H82.1578V22.43C82.1445 21.1767 81.9045 20.25 81.4378 19.65C80.9778 19.05 80.2745 18.75 79.3278 18.75C78.2811 18.75 77.4945 19.08 76.9678 19.74C76.4411 20.4 76.1778 21.3533 76.1778 22.6C76.1778 23.7867 76.4411 24.7067 76.9678 25.36C77.4945 26.0067 78.2545 26.33 79.2478 26.33C79.9011 26.33 80.4645 26.1833 80.9378 25.89C81.4178 25.59 81.7911 25.1633 82.0578 24.61L84.1078 25.26C83.6878 26.2267 83.0511 26.9767 82.1978 27.51C81.3445 28.0367 80.3945 28.3 79.3478 28.3ZM75.4978 23.19V21.56H83.2078V23.19H75.4978ZM91.4314 28.3C90.3581 28.3 89.4147 28.0667 88.6014 27.6C87.7947 27.1267 87.1647 26.47 86.7114 25.63C86.2647 24.7833 86.0414 23.8033 86.0414 22.69C86.0414 21.51 86.2614 20.4867 86.7014 19.62C87.1481 18.7533 87.7681 18.0833 88.5614 17.61C89.3547 17.1367 90.2781 16.9 91.3314 16.9C92.4314 16.9 93.3681 17.1567 94.1414 17.67C94.9147 18.1767 95.4914 18.9 95.8714 19.84C96.2581 20.78 96.4114 21.8967 96.3314 23.19H94.2414V22.43C94.2281 21.1767 93.9881 20.25 93.5214 19.65C93.0614 19.05 92.3581 18.75 91.4114 18.75C90.3647 18.75 89.5781 19.08 89.0514 19.74C88.5247 20.4 88.2614 21.3533 88.2614 22.6C88.2614 23.7867 88.5247 24.7067 89.0514 25.36C89.5781 26.0067 90.3381 26.33 91.3314 26.33C91.9847 26.33 92.5481 26.1833 93.0214 25.89C93.5014 25.59 93.8747 25.1633 94.1414 24.61L96.1914 25.26C95.7714 26.2267 95.1347 26.9767 94.2814 27.51C93.4281 28.0367 92.4781 28.3 91.4314 28.3ZM87.5814 23.19V21.56H95.2914V23.19H87.5814ZM98.925 28V13.3H101.015V28H98.925ZM104.168 28V13.6H106.258V20.32L112.288 13.6H114.888L108.518 20.63L115.358 28H112.678L106.258 21.12V28H104.168ZM119.966 28.3C119.166 28.3 118.496 28.1533 117.956 27.86C117.416 27.56 117.006 27.1667 116.726 26.68C116.452 26.1867 116.316 25.6467 116.316 25.06C116.316 24.5133 116.412 24.0333 116.606 23.62C116.799 23.2067 117.086 22.8567 117.466 22.57C117.846 22.2767 118.312 22.04 118.866 21.86C119.346 21.72 119.889 21.5967 120.496 21.49C121.102 21.3833 121.739 21.2833 122.406 21.19C123.079 21.0967 123.746 21.0033 124.406 20.91L123.646 21.33C123.659 20.4833 123.479 19.8567 123.106 19.45C122.739 19.0367 122.106 18.83 121.206 18.83C120.639 18.83 120.119 18.9633 119.646 19.23C119.172 19.49 118.842 19.9233 118.656 20.53L116.706 19.93C116.972 19.0033 117.479 18.2667 118.226 17.72C118.979 17.1733 119.979 16.9 121.226 16.9C122.192 16.9 123.032 17.0667 123.746 17.4C124.466 17.7267 124.992 18.2467 125.326 18.96C125.499 19.3133 125.606 19.6867 125.646 20.08C125.686 20.4733 125.706 20.8967 125.706 21.35V28H123.856V25.53L124.216 25.85C123.769 26.6767 123.199 27.2933 122.506 27.7C121.819 28.1 120.972 28.3 119.966 28.3ZM120.336 26.59C120.929 26.59 121.439 26.4867 121.866 26.28C122.292 26.0667 122.636 25.7967 122.896 25.47C123.156 25.1433 123.326 24.8033 123.406 24.45C123.519 24.13 123.582 23.77 123.596 23.37C123.616 22.97 123.626 22.65 123.626 22.41L124.306 22.66C123.646 22.76 123.046 22.85 122.506 22.93C121.966 23.01 121.476 23.09 121.036 23.17C120.602 23.2433 120.216 23.3333 119.876 23.44C119.589 23.54 119.332 23.66 119.106 23.8C118.886 23.94 118.709 24.11 118.576 24.31C118.449 24.51 118.386 24.7533 118.386 25.04C118.386 25.32 118.456 25.58 118.596 25.82C118.736 26.0533 118.949 26.24 119.236 26.38C119.522 26.52 119.889 26.59 120.336 26.59ZM128.452 28V17.2H130.312V19.82L130.052 19.48C130.186 19.1333 130.359 18.8167 130.572 18.53C130.786 18.2367 131.032 17.9967 131.312 17.81C131.586 17.61 131.889 17.4567 132.222 17.35C132.562 17.2367 132.909 17.17 133.262 17.15C133.616 17.1233 133.956 17.14 134.282 17.2V19.16C133.929 19.0667 133.536 19.04 133.102 19.08C132.676 19.12 132.282 19.2567 131.922 19.49C131.582 19.71 131.312 19.9767 131.112 20.29C130.919 20.6033 130.779 20.9533 130.692 21.34C130.606 21.72 130.562 22.1233 130.562 22.55V28H128.452ZM142.517 28C141.837 28.1333 141.17 28.19 140.517 28.17C139.863 28.15 139.28 28.0233 138.767 27.79C138.253 27.5567 137.867 27.19 137.607 26.69C137.373 26.2433 137.247 25.79 137.227 25.33C137.213 24.8633 137.207 24.3367 137.207 23.75V14.2H139.307V23.65C139.307 24.0833 139.31 24.46 139.317 24.78C139.33 25.1 139.4 25.37 139.527 25.59C139.767 26.0033 140.147 26.24 140.667 26.3C141.193 26.3533 141.81 26.33 142.517 26.23V28ZM135.137 18.88V17.2H142.517V18.88H135.137Z" fill="black"/>
</svg>
