<svg width="32" height="32" viewBox="0 0 32 32" fill="none" xmlns="http://www.w3.org/2000/svg">
<path fill-rule="evenodd" clip-rule="evenodd" d="M16 5.4961L14.5665 4.02266C11.1978 0.560133 5.02829 1.75539 2.80071 6.10568C1.75307 8.15166 1.5175 11.1049 3.42858 14.8752C5.26915 18.5063 9.09535 22.8529 16 27.5892C22.9047 22.8529 26.7309 18.5063 28.5714 14.8752C30.4825 11.1049 30.2469 8.15166 29.1993 6.10568C26.9717 1.75539 20.8022 0.560133 17.4335 4.02266L16 5.4961ZM16 30C-14.6663 9.73682 6.55751 -6.08174 15.6486 2.28617C15.7679 2.39594 15.8851 2.50987 16 2.62801C16.1149 2.50988 16.2321 2.39595 16.3513 2.28618C25.4425 -6.08176 46.6663 9.73681 16 30Z" fill="black"/>
</svg>
