<svg width="32" height="32" viewBox="0 0 32 32" fill="none" xmlns="http://www.w3.org/2000/svg">
<path fill-rule="evenodd" clip-rule="evenodd" d="M12.0002 7.99998H20.0002C20.7365 7.99998 21.3335 8.59693 21.3335 9.33331V22.6666C21.3335 23.403 20.7365 24 20.0002 24H12.0002C11.2638 24 10.6668 23.403 10.6668 22.6666V9.33331C10.6668 8.59693 11.2638 7.99998 12.0002 7.99998ZM20.0002 5.33331C22.2093 5.33331 24.0002 7.12417 24.0002 9.33331V22.6666C24.0002 24.8758 22.2093 26.6666 20.0002 26.6666H12.0002C9.79102 26.6666 8.00016 24.8758 8.00016 22.6666V9.33331C8.00016 7.12417 9.79102 5.33331 12.0002 5.33331H20.0002Z" fill="black"/>
<path d="M29.3335 7.99998C29.3335 7.2636 28.7365 6.66665 28.0002 6.66665C27.2638 6.66665 26.6668 7.2636 26.6668 7.99998V24C26.6668 24.7364 27.2638 25.3333 28.0002 25.3333C28.7365 25.3333 29.3335 24.7364 29.3335 24V7.99998Z" fill="black"/>
<path d="M5.3335 7.99998C5.3335 7.2636 4.73654 6.66665 4.00016 6.66665C3.26378 6.66665 2.66683 7.2636 2.66683 7.99998V24C2.66683 24.7364 3.26378 25.3333 4.00016 25.3333C4.73654 25.3333 5.3335 24.7364 5.3335 24V7.99998Z" fill="black"/>
</svg>
