<svg width="24" height="24" viewBox="0 0 24 24" fill="none" xmlns="http://www.w3.org/2000/svg">
<path fill-rule="evenodd" clip-rule="evenodd" d="M9 6H15C15.5523 6 16 6.44772 16 7V17C16 17.5523 15.5523 18 15 18H9C8.44772 18 8 17.5523 8 17V7C8 6.44772 8.44772 6 9 6ZM15 4C16.6569 4 18 5.34315 18 7V17C18 18.6569 16.6569 20 15 20H9C7.34315 20 6 18.6569 6 17V7C6 5.34315 7.34315 4 9 4H15Z" fill="#818181"/>
<path d="M22 6C22 5.44772 21.5523 5 21 5C20.4477 5 20 5.44772 20 6V18C20 18.5523 20.4477 19 21 19C21.5523 19 22 18.5523 22 18V6Z" fill="#818181"/>
<path d="M4 6C4 5.44772 3.55228 5 3 5C2.44772 5 2 5.44772 2 6V18C2 18.5523 2.44772 19 3 19C3.55228 19 4 18.5523 4 18V6Z" fill="#818181"/>
</svg>
