<svg width="32" height="32" viewBox="0 0 32 32" fill="none" xmlns="http://www.w3.org/2000/svg">
<path fill-rule="evenodd" clip-rule="evenodd" d="M21.3332 16C21.3332 18.9455 18.9454 21.3333 15.9998 21.3333C13.0543 21.3333 10.6665 18.9455 10.6665 16C10.6665 13.0545 13.0543 10.6667 15.9998 10.6667C18.9454 10.6667 21.3332 13.0545 21.3332 16ZM18.6665 16C18.6665 17.4728 17.4726 18.6667 15.9998 18.6667C14.5271 18.6667 13.3332 17.4728 13.3332 16C13.3332 14.5272 14.5271 13.3333 15.9998 13.3333C17.4726 13.3333 18.6665 14.5272 18.6665 16Z" fill="black"/>
<path fill-rule="evenodd" clip-rule="evenodd" d="M15.9998 4C23.4552 4 29.7196 9.09909 31.4958 16C29.7196 22.9009 23.4552 28 15.9998 28C8.54448 28 2.28008 22.9009 0.503906 16C2.28008 9.09909 8.54448 4 15.9998 4ZM15.9998 25.3333C10.0324 25.3333 4.97493 21.4108 3.27615 16C4.97493 10.5892 10.0324 6.66667 15.9998 6.66667C21.9673 6.66667 27.0247 10.5892 28.7235 16C27.0247 21.4108 21.9673 25.3333 15.9998 25.3333Z" fill="black"/>
</svg>
